# xmcd CD database file
#
# Track frame offsets:
#	150
#	3052
#	17445
#	27902
#	40902
#	58150
#	68157
#	76877
#	86940
#	98660
#	108730
#	120107
#	129200
#	136822
#	149840
#	161942
#	171005
#	179407
#	195375
#	205100
#	222572
#	239000
#	251632
#
# Disc length: 3547 seconds
#
# Revision: 3
# Processed by: cddbd v1.5.1PL0 Copyright (c) Steve Scherf et al.
# Submitted via: CDex 1.51
#
DISCID=410dd917
DTITLE=Roberio e Seus Teclados - Ao Vivo 2002
DYEAR=2004
DGENRE=Forro
TTITLE0=Robério and Seus Teclados - Abertura
TTITLE1=Robério and Seus Teclados - Volta Amor
TTITLE2=Robério and Seus Teclados - Estou Apaixonado Por Você
TTITLE3=Robério and Seus Teclados - Ô De Casa, Ô De Fora
TTITLE4=Robério and Seus Teclados - Linda
TTITLE5=Robério and Seus Teclados - Amor E Paixão
TTITLE6=Robério and Seus Teclados - Jeito Bom
TTITLE7=Robério and Seus Teclados - Cheiro No Cangóte
TTITLE8=Robério and Seus Teclados - Antes De Voltar Pra Casa
TTITLE9=Robério and Seus Teclados - Alô
TTITLE10=Robério and Seus Teclados - Ela Não Esta Aqui
TTITLE11=Robério and Seus Teclados - Talismã
TTITLE12=Robério and Seus Teclados - Vivo A Te Esperar
TTITLE13=Robério and Seus Teclados - Es Meu Amor
TTITLE14=Robério and Seus Teclados - Dormi Na Praça
TTITLE15=Robério and Seus Teclados - Tô Fazendo Falta
TTITLE16=Robério and Seus Teclados - Como Esquecer De Você
TTITLE17=Robério and Seus Teclados - Xote Da Alegria
TTITLE18=Robério and Seus Teclados - Pout-Pourri 
TTITLE19=Robério and Seus Teclados - O Amor Deixou A Gente
TTITLE20=Robério and Seus Teclados - Só Sei Amar Você
TTITLE21=Robério and Seus Teclados - Eu SempreTe Amei
TTITLE22=Robério and Seus Teclados - Volta Logo
EXTD=YEAR: 2004
EXTT0=
EXTT1=
EXTT2=
EXTT3=
EXTT4=
EXTT5=
EXTT6=
EXTT7=
EXTT8=
EXTT9=
EXTT10=
EXTT11=
EXTT12=
EXTT13=
EXTT14=
EXTT15=
EXTT16=
EXTT17=
EXTT18=
EXTT19=
EXTT20=
EXTT21=
EXTT22=
PLAYORDER=
